<svg width="24" height="20" viewBox="0 0 24 20" fill="none" xmlns="http://www.w3.org/2000/svg">
    <path d="M23.033 17.8048H21.5053V8.97776C21.5053 8.76633 21.4615 8.5572 21.3765 8.36359C21.2915 8.16999 21.1673 7.99613 21.0117 7.85302L13.3734 0.646262C13.3696 0.643005 13.3661 0.639496 13.3629 0.63576C13.0816 0.380003 12.7151 0.238281 12.335 0.238281C11.9549 0.238281 11.5884 0.380003 11.3072 0.63576L11.2967 0.646262L3.66696 7.85302C3.51133 7.99613 3.38709 8.16999 3.30212 8.36359C3.21716 8.5572 3.1733 8.76633 3.17333 8.97776V17.8048H1.64567C1.44309 17.8048 1.2488 17.8853 1.10556 18.0285C0.962311 18.1718 0.881836 18.366 0.881836 18.5686C0.881836 18.7712 0.962311 18.9655 1.10556 19.1087C1.2488 19.252 1.44309 19.3325 1.64567 19.3325H23.033C23.2355 19.3325 23.4298 19.252 23.5731 19.1087C23.7163 18.9655 23.7968 18.7712 23.7968 18.5686C23.7968 18.366 23.7163 18.1718 23.5731 18.0285C23.4298 17.8853 23.2355 17.8048 23.033 17.8048ZM4.701 8.97776L4.7115 8.96821L12.3393 1.76432L19.9681 8.9663L19.9786 8.97585V17.8048H15.3946V13.2218C15.3946 12.8166 15.2337 12.4281 14.9472 12.1416C14.6607 11.8551 14.2721 11.6941 13.867 11.6941H10.8117C10.4065 11.6941 10.0179 11.8551 9.73143 12.1416C9.44494 12.4281 9.28399 12.8166 9.28399 13.2218V17.8048H4.701V8.97776ZM13.867 17.8048H10.8117V13.2218H13.867V17.8048Z" fill="#DDC9AF"/>
</svg>
