<svg class="color-change" width="35" height="35" viewBox="0 0 35 35" fill="none" xmlns="http://www.w3.org/2000/svg">
    <path d="M31.7131 17.5327C31.7131 14.7935 30.9009 12.1159 29.3791 9.83833C27.8573 7.56081 25.6943 5.78569 23.1637 4.73746C20.633 3.68923 17.8483 3.41496 15.1618 3.94935C12.4753 4.48373 10.0076 5.80276 8.07068 7.73964C6.1338 9.67652 4.81477 12.1442 4.28039 14.8308C3.746 17.5173 4.02027 20.302 5.0685 22.8326C6.11673 25.3633 7.89184 27.5263 10.1694 29.048C12.4469 30.5698 15.1245 31.3821 17.8637 31.3821C21.5356 31.3782 25.056 29.9178 27.6524 27.3214C30.2489 24.725 31.7093 21.2046 31.7131 17.5327ZM6.14495 17.5327C6.14495 15.2149 6.83225 12.9492 8.11992 11.0221C9.40759 9.09494 11.2378 7.59292 13.3791 6.70595C15.5205 5.81899 17.8767 5.58692 20.1499 6.03909C22.4231 6.49126 24.5112 7.60736 26.1501 9.24626C27.789 10.8852 28.9051 12.9732 29.3573 15.2465C29.8095 17.5197 29.5774 19.8759 28.6904 22.0172C27.8035 24.1586 26.3014 25.9888 24.3743 27.2765C22.4472 28.5641 20.1815 29.2514 17.8637 29.2514C14.7568 29.2479 11.7781 28.0121 9.58119 25.8152C7.38426 23.6183 6.14848 20.6396 6.14495 17.5327ZM18.6174 21.4824C18.5185 21.5815 18.401 21.66 18.2717 21.7137C18.1423 21.7673 18.0037 21.7949 17.8637 21.7949C17.7237 21.7949 17.5851 21.7673 17.4557 21.7137C17.3264 21.66 17.2089 21.5815 17.11 21.4824L11.7833 16.1557C11.6843 16.0567 11.6058 15.9392 11.5522 15.8099C11.4986 15.6806 11.4711 15.542 11.4711 15.402C11.4711 15.262 11.4986 15.1234 11.5522 14.9941C11.6058 14.8647 11.6843 14.7472 11.7833 14.6483C11.8823 14.5493 11.9998 14.4708 12.1291 14.4172C12.2584 14.3636 12.397 14.3361 12.537 14.3361C12.677 14.3361 12.8156 14.3636 12.9449 14.4172C13.0742 14.4708 13.1917 14.5493 13.2907 14.6483L17.8637 19.2226L22.4367 14.6483C22.6366 14.4484 22.9077 14.3361 23.1904 14.3361C23.4731 14.3361 23.7442 14.4484 23.9441 14.6483C24.144 14.8482 24.2563 15.1193 24.2563 15.402C24.2563 15.6847 24.144 15.9558 23.9441 16.1557L18.6174 21.4824Z" fill="#304595"/>
</svg>
