<svg width="25" height="26" viewBox="0 0 25 26" fill="none" xmlns="http://www.w3.org/2000/svg">
    <path d="M17.1875 5.91626H7.8125C5.9477 5.91626 4.15927 6.65705 2.84066 7.97567C1.52204 9.29428 0.78125 11.0827 0.78125 12.9475C0.78125 14.8123 1.52204 16.6007 2.84066 17.9194C4.15927 19.238 5.9477 19.9788 7.8125 19.9788H17.1875C19.0523 19.9788 20.8407 19.238 22.1593 17.9194C23.478 16.6007 24.2188 14.8123 24.2188 12.9475C24.2188 11.0827 23.478 9.29428 22.1593 7.97567C20.8407 6.65705 19.0523 5.91626 17.1875 5.91626ZM17.1875 18.4163H7.8125C6.3621 18.4163 4.9711 17.8401 3.94551 16.8145C2.91992 15.7889 2.34375 14.3979 2.34375 12.9475C2.34375 11.4971 2.91992 10.1061 3.94551 9.08052C4.9711 8.05493 6.3621 7.47876 7.8125 7.47876H17.1875C18.6379 7.47876 20.0289 8.05493 21.0545 9.08052C22.0801 10.1061 22.6562 11.4971 22.6562 12.9475C22.6562 14.3979 22.0801 15.7889 21.0545 16.8145C20.0289 17.8401 18.6379 18.4163 17.1875 18.4163ZM17.1875 9.04126C16.4149 9.04126 15.6597 9.27036 15.0173 9.69958C14.3749 10.1288 13.8743 10.7389 13.5786 11.4527C13.2829 12.1664 13.2056 12.9518 13.3563 13.7096C13.507 14.4673 13.8791 15.1633 14.4254 15.7096C14.9717 16.2559 15.6677 16.628 16.4254 16.7787C17.1832 16.9294 17.9686 16.8521 18.6824 16.5564C19.3961 16.2608 20.0062 15.7601 20.4354 15.1177C20.8647 14.4753 21.0938 13.7201 21.0938 12.9475C21.0938 11.9115 20.6822 10.9179 19.9496 10.1854C19.2171 9.45281 18.2235 9.04126 17.1875 9.04126ZM17.1875 15.2913C16.724 15.2913 16.2708 15.1538 15.8854 14.8963C15.5 14.6387 15.1995 14.2727 15.0222 13.8444C14.8448 13.4162 14.7984 12.9449 14.8888 12.4903C14.9792 12.0356 15.2024 11.618 15.5302 11.2902C15.858 10.9624 16.2756 10.7392 16.7303 10.6488C17.1849 10.5584 17.6562 10.6048 18.0844 10.7822C18.5127 10.9596 18.8787 11.26 19.1363 11.6454C19.3938 12.0308 19.5312 12.484 19.5312 12.9475C19.5312 13.5691 19.2843 14.1653 18.8448 14.6048C18.4052 15.0443 17.8091 15.2913 17.1875 15.2913Z" fill="#DDC9AF"/>
</svg>
