<svg width="158" height="50" viewBox="0 0 158 50" fill="none" xmlns="http://www.w3.org/2000/svg">
    <path d="M13.9242 27.4714C12.1271 27.6096 10.3342 27.7562 8.54133 27.907V20.0987C9.82735 19.9898 11.1092 19.8851 12.3952 19.7846C14.6698 19.6044 15.5998 20.4674 16.1569 21.678C16.1862 21.678 16.2197 21.6738 16.2491 21.6696V11.4904C16.2197 11.4904 16.1862 11.4946 16.1569 11.4988C15.5998 12.7974 14.6698 13.7943 12.3952 13.9745C11.1092 14.075 9.82735 14.1839 8.54133 14.2886V6.99143C10.2127 6.849 11.8841 6.71495 13.5555 6.5851C16.2491 6.37565 18.2472 6.41754 20.1951 8.32353C20.2412 8.29001 20.2872 8.2565 20.3333 8.2188C19.7133 5.61326 19.0934 3.00771 18.4734 0.402162C12.3114 0.846194 6.15361 1.36144 0 1.9437C0 1.97303 0 2.00654 0 2.03586C1.25251 2.4757 2.17827 3.32188 2.17827 5.5965V30.4204C2.17827 32.6992 1.24832 33.7129 0 34.3874C0 34.4167 0 34.4502 0 34.4795C6.27509 33.8847 12.5586 33.3653 18.8462 32.9128C19.5123 30.2319 20.1783 27.5509 20.8444 24.87C20.7815 24.8449 20.7187 24.8155 20.6601 24.7904C18.6619 26.931 16.6177 27.2619 13.9242 27.4714Z" fill="#DDC9AF"/>
    <path d="M35.0031 19.1059C32.8668 14.3221 30.7346 9.54249 28.6024 4.77543C26.3236 4.91367 24.049 5.06028 21.7701 5.21527C21.7701 5.2404 21.7701 5.26973 21.7701 5.29486C22.83 5.69282 23.6175 6.43008 23.6175 8.35282C23.6175 15.3442 23.6175 22.3398 23.6175 29.3312C23.6175 31.254 22.83 32.0918 21.7701 32.6363C21.7701 32.6615 21.7701 32.6908 21.7701 32.7159C24.6899 32.5149 27.6096 32.3305 30.5293 32.163V32.0834C29.4695 31.6729 28.682 30.9356 28.682 29.0087V16.3999C30.789 20.7773 32.8961 25.1632 35.0073 29.5574C37.1144 24.9412 39.2256 20.3333 41.3327 15.7338V28.3426C41.3327 30.2696 40.5452 31.0864 39.4854 31.61C39.4854 31.6352 39.4854 31.6645 39.4854 31.6896C42.4051 31.5514 45.329 31.4299 48.2487 31.321V31.2414C47.1889 30.8099 46.4014 30.0559 46.4014 28.129C46.4014 21.1376 46.4014 14.142 46.4014 7.15058C46.4014 5.22784 47.1889 4.41099 48.2487 3.89993V3.82035C45.9699 3.90412 43.6911 3.99628 41.4081 4.10101C39.2717 9.09427 37.1395 14.0959 35.0031 19.1059Z" fill="#DDC9AF"/>
    <path d="M64.171 16.7853C66.4121 15.3736 67.5516 13.3922 67.5516 11.038C67.5516 6.87414 64.2464 3.37633 59.2951 3.49363C56.1366 3.56903 52.9781 3.66119 49.8196 3.7701C49.8196 3.79523 49.8196 3.82456 49.8196 3.84969C50.8794 4.28535 51.6669 5.04355 51.6669 6.97048V27.9489C51.6669 29.8716 50.8794 30.6843 49.8196 31.1912C49.8196 31.2163 49.8196 31.2456 49.8196 31.2708C53.0451 31.1577 56.2664 31.0655 59.492 30.9901C64.4056 30.8728 68.4983 27.6096 68.4983 22.8132C68.4983 20.1029 67.0447 17.8786 64.171 16.7895V16.7853ZM57.0163 8.41568C57.5818 8.39892 58.1431 8.38636 58.7086 8.37379C60.9497 8.31934 62.131 9.83156 62.131 11.4024C62.131 12.9733 60.9497 14.5274 58.7086 14.5819C58.1431 14.5944 57.5818 14.6112 57.0163 14.6238C57.0163 12.5544 57.0163 10.485 57.0163 8.41568ZM59.0982 26.1183C58.4028 26.1351 57.7074 26.1518 57.0163 26.1686C57.0163 23.9149 57.0163 21.6654 57.0163 19.4118C57.7116 19.395 58.407 19.3782 59.0982 19.3615C61.9299 19.2945 62.9898 21.0873 62.9898 22.6582C62.9898 24.2291 61.9299 26.0555 59.0982 26.1183Z" fill="#DDC9AF"/>
    <path d="M81.5134 25.8502C79.9928 25.846 78.4722 25.846 76.9516 25.8502V19.2484C78.0407 19.2484 79.1257 19.2484 80.2148 19.2484C82.1418 19.2484 82.9293 20.0443 83.3984 21.1041C83.4236 21.1041 83.4529 21.1041 83.478 21.1041V12.4999C83.4529 12.4999 83.4236 12.4999 83.3984 12.4999C82.9251 13.5597 82.1418 14.3389 80.2148 14.3347C79.1257 14.3347 78.0407 14.3347 76.9516 14.3347V8.16852C78.3675 8.16852 79.7834 8.16852 81.1992 8.16852C83.4822 8.1769 85.1704 8.34446 86.8208 10.0871C86.8585 10.0619 86.9004 10.0368 86.9381 10.0117C86.4145 7.76638 85.8909 5.52527 85.3631 3.27998C80.1436 3.24228 74.9283 3.25066 69.7089 3.30931V3.38889C70.7687 3.84968 71.5562 4.62883 71.5562 6.55157V27.53C71.5562 29.4527 70.7687 30.2486 69.7089 30.7304V30.81C75.0331 30.7513 80.3531 30.7429 85.6773 30.7848C86.2428 28.5647 86.8041 26.3403 87.3696 24.1202C87.3151 24.095 87.2649 24.0657 87.2104 24.0406C85.5181 25.712 83.788 25.8586 81.5092 25.8502H81.5134Z" fill="#DDC9AF"/>
    <path d="M99.3249 26.0932C98.0556 26.0639 96.7822 26.0345 95.5087 26.0094V6.68145C95.5087 4.75451 96.2962 3.98793 97.356 3.53971C97.356 3.51458 97.356 3.48945 97.356 3.46012C94.3274 3.3931 91.2988 3.34283 88.2701 3.30932V3.38891C89.33 3.87064 90.1175 4.66655 90.1175 6.59348C90.1175 13.5849 90.1175 20.5805 90.1175 27.5719C90.1175 29.4988 89.33 30.2696 88.2701 30.7304V30.81C93.276 30.8644 98.286 30.965 103.292 31.1116C103.895 28.8914 104.498 26.6671 105.101 24.4469C105.076 24.4343 105.051 24.4176 105.022 24.405C103.33 26.0429 101.599 26.1518 99.3207 26.0932H99.3249Z" fill="#DDC9AF"/>
    <path d="M116.579 26.688C115.31 26.6294 114.037 26.5791 112.767 26.5246V7.19669C112.767 5.26975 113.555 4.51574 114.615 4.09265V4.01306C111.59 3.8832 108.562 3.77428 105.533 3.67794V3.75753C106.593 4.2644 107.38 5.07287 107.38 6.9998V27.9782C107.38 29.901 106.593 30.6634 105.533 31.099V31.1786C110.539 31.3378 115.545 31.5389 120.546 31.786C121.15 29.5784 121.753 27.3666 122.352 25.159C122.327 25.1465 122.301 25.1297 122.272 25.1171C120.584 26.7215 118.854 26.7927 116.575 26.688H116.579Z" fill="#DDC9AF"/>
    <path d="M122.867 4.48222C123.927 5.01003 124.714 5.83945 124.714 7.7622V28.7406C124.714 30.6634 123.927 31.409 122.867 31.8237V31.9033C125.891 32.0625 128.916 32.2342 131.94 32.4269V32.3473C130.88 31.8069 130.093 30.9775 130.093 29.0506V8.07218C130.093 6.14944 130.88 5.40799 131.94 5.00585V4.92626C128.916 4.73357 125.891 4.56182 122.867 4.40264V4.48222Z" fill="#DDC9AF"/>
    <path d="M154.762 30.5084C153.572 27.1614 152.378 23.8186 151.189 20.4757C153.974 18.8588 155.641 15.9475 155.641 12.3198C155.641 6.18713 150.866 1.26926 144.084 0.741452C140.632 0.473357 137.181 0.226205 133.725 0V0.0921581C134.981 0.733072 135.907 1.72586 135.907 4.00467V28.8286C135.907 31.1074 134.977 31.9703 133.725 32.4479V32.54C137.302 32.7746 140.88 33.0301 144.453 33.3108V33.2186C143.2 32.5651 142.27 31.564 142.27 29.2852V21.7995C142.873 21.8455 143.477 21.8916 144.08 21.9377C144.499 21.9712 144.964 22.0047 145.378 21.9922C146.229 24.5097 147.079 27.0231 147.93 29.5449C148.763 31.9871 148.302 32.9212 147.234 33.4406V33.5328C150.824 33.826 154.414 34.1402 158 34.4795V34.3873C156.747 33.7129 155.541 32.7159 154.753 30.5084H154.762ZM144.088 15.9893C143.485 15.9433 142.882 15.8972 142.279 15.8511V6.55576C142.882 6.60184 143.485 6.64791 144.088 6.69399C147.058 6.92438 149.149 9.14874 149.149 11.7501C149.149 14.3515 147.058 16.2197 144.088 15.9893Z" fill="#DDC9AF"/>
    <path d="M15.7045 49.7358L15.4322 48.8519C15.4322 48.8519 15.4113 48.8226 15.3903 48.8226H13.0445C13.0445 48.8226 13.011 48.831 13.0026 48.8519L12.7303 49.7358C12.7094 49.7902 12.6717 49.8154 12.6088 49.8154H11.8548C11.7794 49.8154 11.7543 49.7777 11.7752 49.7065L13.6477 44.0932C13.6686 44.0388 13.7063 44.0136 13.7692 44.0136H14.653C14.7117 44.0136 14.7536 44.0388 14.7745 44.0932L16.6554 49.7065L16.6638 49.7484C16.6638 49.7944 16.6344 49.8196 16.5716 49.8196H15.8176C15.7589 49.8196 15.717 49.7944 15.6961 49.74L15.7045 49.7358ZM13.2749 48.0392C13.2749 48.0392 13.2958 48.056 13.3084 48.056H15.1306C15.1306 48.056 15.1557 48.0518 15.1641 48.0392C15.1725 48.0267 15.1767 48.0183 15.1683 48.0057L14.2425 45.0693C14.2425 45.0693 14.2258 45.0483 14.2132 45.0483C14.2006 45.0483 14.1881 45.0567 14.1839 45.0693L13.2665 48.0057C13.2665 48.0057 13.2623 48.0309 13.2707 48.0392H13.2749Z" fill="#DDC9AF"/>
    <path d="M22.6038 44.0095H23.3704C23.4374 44.0095 23.4709 44.043 23.4709 44.11V49.7149C23.4709 49.7819 23.4374 49.8154 23.3704 49.8154H22.6038C22.5368 49.8154 22.5033 49.7819 22.5033 49.7149V45.618C22.5033 45.618 22.4949 45.5845 22.4823 45.5761C22.4698 45.5678 22.4572 45.5761 22.453 45.5971L21.3345 47.2978C21.301 47.3439 21.2591 47.369 21.2131 47.369H20.8612C20.8067 47.369 20.769 47.3481 20.7397 47.3104L19.6129 45.6013C19.6129 45.6013 19.5961 45.5761 19.5836 45.5803C19.571 45.5845 19.5626 45.6013 19.5626 45.6222V49.719C19.5626 49.7861 19.5291 49.8196 19.4621 49.8196H18.6955C18.6285 49.8196 18.595 49.7861 18.595 49.719V44.1142C18.595 44.0472 18.6285 44.0137 18.6955 44.0137H19.4621C19.5082 44.0137 19.55 44.0388 19.5836 44.0849L21.0036 46.2589C21.0036 46.2589 21.0204 46.2673 21.0329 46.2673C21.0455 46.2673 21.0581 46.2673 21.0623 46.2589L22.4823 44.0849C22.5158 44.0388 22.5577 44.0137 22.6038 44.0137V44.0095Z" fill="#DDC9AF"/>
    <path d="M29.7292 44.8556H26.7718C26.7467 44.8556 26.7299 44.8682 26.7299 44.8975V46.4391C26.7299 46.4642 26.7425 46.481 26.7718 46.481H28.7741C28.8411 46.481 28.8747 46.5145 28.8747 46.5815V47.214C28.8747 47.2811 28.8411 47.3146 28.7741 47.3146H26.7718C26.7467 47.3146 26.7299 47.3271 26.7299 47.3565V48.9483C26.7299 48.9734 26.7425 48.9902 26.7718 48.9902H29.7292C29.7962 48.9902 29.8297 49.0237 29.8297 49.0907V49.7232C29.8297 49.7902 29.7962 49.8238 29.7292 49.8238H25.867C25.7999 49.8238 25.7664 49.7902 25.7664 49.7232V44.1267C25.7664 44.0597 25.7999 44.0262 25.867 44.0262H29.7292C29.7962 44.0262 29.8297 44.0597 29.8297 44.1267V44.7593C29.8297 44.8263 29.7962 44.8598 29.7292 44.8598V44.8556ZM27.3582 43.1298C27.3415 43.1046 27.3415 43.0795 27.3624 43.046L27.9573 41.961C27.9782 41.915 28.0159 41.8898 28.0788 41.8898H28.7532C28.7951 41.8898 28.8202 41.9024 28.8286 41.9233C28.837 41.9485 28.8328 41.9736 28.8118 42.0071L28.0955 43.0921C28.062 43.1381 28.0201 43.1633 27.974 43.1633H27.442C27.4001 43.1633 27.375 43.1507 27.3582 43.1298Z" fill="#DDC9AF"/>
    <path d="M35.5058 44.022H36.2682C36.3353 44.022 36.3688 44.0555 36.3688 44.1226V49.7191C36.3688 49.7861 36.3353 49.8196 36.2682 49.8196H35.4849C35.4388 49.8196 35.3969 49.7945 35.3634 49.7484L32.8877 45.8359C32.8877 45.8359 32.871 45.8065 32.8584 45.8107C32.8458 45.8107 32.8375 45.8275 32.8375 45.8442L32.8458 49.7191C32.8458 49.7861 32.8123 49.8196 32.7453 49.8196H31.9829C31.9159 49.8196 31.8824 49.7861 31.8824 49.7191V44.1226C31.8824 44.0555 31.9159 44.022 31.9829 44.022H32.7662C32.8123 44.022 32.8542 44.0472 32.8877 44.0933L35.3634 48.0183C35.3634 48.0183 35.3802 48.0476 35.3927 48.0435C35.4053 48.0435 35.4137 48.0267 35.4137 48.0099L35.4053 44.1268C35.4053 44.0597 35.4388 44.0262 35.5058 44.0262V44.022Z" fill="#DDC9AF"/>
    <path d="M42.2459 49.7358L41.9736 48.8519C41.9736 48.8519 41.9527 48.8226 41.9317 48.8226H39.5859C39.5859 48.8226 39.5524 48.831 39.544 48.8519L39.2717 49.7358C39.2508 49.7902 39.2131 49.8154 39.1502 49.8154H38.3962C38.3208 49.8154 38.2957 49.7777 38.3166 49.7065L40.1891 44.0932C40.21 44.0388 40.2477 44.0136 40.3106 44.0136H41.1945C41.2531 44.0136 41.295 44.0388 41.3159 44.0932L43.1968 49.7065L43.2052 49.7484C43.2052 49.7944 43.1758 49.8196 43.113 49.8196H42.359C42.3003 49.8196 42.2584 49.7944 42.2375 49.74L42.2459 49.7358ZM39.8163 48.0392C39.8163 48.0392 39.8372 48.056 39.8498 48.056H41.672C41.672 48.056 41.6971 48.0518 41.7055 48.0392C41.7139 48.0267 41.7181 48.0183 41.7097 48.0057L40.7839 45.0693C40.7839 45.0693 40.7672 45.0483 40.7546 45.0483C40.742 45.0483 40.7295 45.0567 40.7253 45.0693L39.8079 48.0057C39.8079 48.0057 39.8037 48.0309 39.8121 48.0392H39.8163Z" fill="#DDC9AF"/>
    <path d="M45.5677 49.3211C45.1446 48.9441 44.9352 48.4163 44.9352 47.746V46.0872C44.9352 45.417 45.1446 44.8934 45.5677 44.5122C45.9908 44.131 46.5605 43.9425 47.2768 43.9425C47.9931 43.9425 48.5335 44.131 48.9524 44.508C49.3713 44.885 49.5807 45.3918 49.5807 46.0369V46.0453C49.5807 46.1123 49.5472 46.1459 49.4802 46.1459H48.7262C48.6592 46.1459 48.6257 46.1123 48.6257 46.0453C48.6257 45.6432 48.5042 45.329 48.2654 45.1112C48.0224 44.8892 47.6957 44.7803 47.281 44.7803C46.8663 44.7803 46.5228 44.8934 46.2715 45.1237C46.0201 45.3499 45.8945 45.6851 45.8945 46.1207V47.7712C45.8945 48.1859 46.0201 48.5043 46.2715 48.7263C46.5228 48.9483 46.8621 49.0572 47.281 49.0572C47.6999 49.0572 48.0266 48.9483 48.2654 48.7263C48.5084 48.5043 48.6257 48.1859 48.6257 47.7712V47.6706C48.6257 47.6455 48.6131 47.6288 48.5838 47.6288H47.436C47.369 47.6288 47.3355 47.5952 47.3355 47.5282V46.9041C47.3355 46.837 47.369 46.8035 47.436 46.8035H49.4802C49.5472 46.8035 49.5807 46.837 49.5807 46.9041V47.7502C49.5807 48.4163 49.3713 48.9357 48.9524 49.3211C48.5335 49.7023 47.9764 49.895 47.2768 49.895C46.5773 49.895 45.9908 49.7065 45.5677 49.3253V49.3211Z" fill="#DDC9AF"/>
    <path d="M55.7217 44.8556H52.7643C52.7392 44.8556 52.7224 44.8682 52.7224 44.8975V46.4391C52.7224 46.4642 52.735 46.481 52.7643 46.481H54.7666C54.8337 46.481 54.8672 46.5145 54.8672 46.5815V47.214C54.8672 47.2811 54.8337 47.3146 54.7666 47.3146H52.7643C52.7392 47.3146 52.7224 47.3271 52.7224 47.3565V48.9483C52.7224 48.9734 52.735 48.9902 52.7643 48.9902H55.7217C55.7888 48.9902 55.8223 49.0237 55.8223 49.0907V49.7232C55.8223 49.7902 55.7888 49.8238 55.7217 49.8238H51.8595C51.7925 49.8238 51.759 49.7902 51.759 49.7232V44.1267C51.759 44.0597 51.7925 44.0262 51.8595 44.0262H55.7217C55.7888 44.0262 55.8223 44.0597 55.8223 44.1267V44.7593C55.8223 44.8263 55.7888 44.8598 55.7217 44.8598V44.8556Z" fill="#DDC9AF"/>
    <path d="M61.8796 44.0095H62.6461C62.7132 44.0095 62.7467 44.043 62.7467 44.11V49.7149C62.7467 49.7819 62.7132 49.8154 62.6461 49.8154H61.8796C61.8125 49.8154 61.779 49.7819 61.779 49.7149V45.618C61.779 45.618 61.7706 45.5845 61.7581 45.5761C61.7455 45.5678 61.7329 45.5761 61.7288 45.5971L60.6103 47.2978C60.5768 47.3439 60.5349 47.369 60.4888 47.369H60.1369C60.0825 47.369 60.0448 47.3481 60.0155 47.3104L58.8886 45.6013C58.8886 45.6013 58.8719 45.5761 58.8593 45.5803C58.8467 45.5887 58.8384 45.6013 58.8384 45.6222V49.719C58.8384 49.7861 58.8048 49.8196 58.7378 49.8196H57.9754C57.9084 49.8196 57.8749 49.7861 57.8749 49.719V44.1142C57.8749 44.0472 57.9084 44.0137 57.9754 44.0137H58.7378C58.7839 44.0137 58.8258 44.0388 58.8593 44.0849L60.2794 46.2589C60.2794 46.2589 60.2961 46.2673 60.3087 46.2673C60.3213 46.2673 60.3338 46.2673 60.338 46.2589L61.7581 44.0849C61.7916 44.0388 61.8335 44.0137 61.8796 44.0137V44.0095Z" fill="#DDC9AF"/>
    <path d="M68.892 44.8556H65.9346C65.9095 44.8556 65.8927 44.8682 65.8927 44.8975V46.4391C65.8927 46.4642 65.9053 46.481 65.9346 46.481H67.9369C68.004 46.481 68.0375 46.5145 68.0375 46.5815V47.214C68.0375 47.2811 68.004 47.3146 67.9369 47.3146H65.9346C65.9095 47.3146 65.8927 47.3271 65.8927 47.3565V48.9483C65.8927 48.9734 65.9053 48.9902 65.9346 48.9902H68.892C68.959 48.9902 68.9926 49.0237 68.9926 49.0907V49.7232C68.9926 49.7902 68.959 49.8238 68.892 49.8238H65.0298C64.9628 49.8238 64.9292 49.7902 64.9292 49.7232V44.1267C64.9292 44.0597 64.9628 44.0262 65.0298 44.0262H68.892C68.959 44.0262 68.9926 44.0597 68.9926 44.1267V44.7593C68.9926 44.8263 68.959 44.8598 68.892 44.8598V44.8556Z" fill="#DDC9AF"/>
    <path d="M74.6686 44.022H75.4352C75.5022 44.022 75.5358 44.0555 75.5358 44.1226V49.7191C75.5358 49.7861 75.5022 49.8196 75.4352 49.8196H74.6519C74.6058 49.8196 74.5639 49.7945 74.5304 49.7484L72.0547 45.8359C72.0547 45.8359 72.038 45.8065 72.0254 45.8107C72.0128 45.8107 72.0044 45.8275 72.0044 45.8442L72.0128 49.7191C72.0128 49.7861 71.9793 49.8196 71.9123 49.8196H71.1457C71.0787 49.8196 71.0452 49.7861 71.0452 49.7191V44.1226C71.0452 44.0555 71.0787 44.022 71.1457 44.022H71.929C71.9751 44.022 72.017 44.0472 72.0505 44.0933L74.5262 48.0183C74.5262 48.0183 74.543 48.0476 74.5555 48.0435C74.5681 48.0435 74.5765 48.0267 74.5765 48.0099L74.5681 44.1268C74.5681 44.0597 74.6016 44.0262 74.6686 44.0262V44.022Z" fill="#DDC9AF"/>
    <path d="M81.9658 44.11V44.7551C81.9658 44.8221 81.9323 44.8556 81.8653 44.8556H80.2232C80.1981 44.8556 80.1814 44.8682 80.1814 44.8975V49.719C80.1814 49.7861 80.1478 49.8196 80.0808 49.8196H79.3142C79.2472 49.8196 79.2137 49.7861 79.2137 49.719V44.8975C79.2137 44.8724 79.2011 44.8556 79.1718 44.8556H77.5842C77.5171 44.8556 77.4836 44.8221 77.4836 44.7551V44.11C77.4836 44.043 77.5171 44.0095 77.5842 44.0095H81.8611C81.9281 44.0095 81.9617 44.043 81.9617 44.11H81.9658Z" fill="#DDC9AF"/>
    <path d="M84.1902 49.4551C83.809 49.1661 83.6163 48.7598 83.6163 48.2361V48.056C83.6163 47.989 83.6498 47.9555 83.7168 47.9555H84.4624C84.5295 47.9555 84.563 47.989 84.563 48.056V48.1565C84.563 48.4163 84.6719 48.6341 84.8939 48.8016C85.1159 48.9692 85.4343 49.053 85.849 49.053C86.2093 49.053 86.4899 48.9818 86.6784 48.8352C86.8711 48.6927 86.9633 48.5 86.9633 48.2571C86.9633 48.0476 86.8627 47.8759 86.6658 47.7376C86.469 47.5994 86.1297 47.4402 85.6437 47.2601C85.1746 47.1051 84.8185 46.9753 84.5714 46.8621C84.3284 46.7532 84.1189 46.594 83.9472 46.3846C83.7755 46.1751 83.6917 45.9029 83.6917 45.5594C83.6917 45.0483 83.8718 44.6504 84.2321 44.3655C84.5923 44.0807 85.0992 43.9382 85.7569 43.9382C86.4145 43.9382 86.9507 44.089 87.3235 44.3906C87.6963 44.6923 87.8806 45.1153 87.8806 45.6599V45.7521C87.8806 45.8191 87.8471 45.8526 87.7801 45.8526H87.0261C86.9591 45.8526 86.9256 45.8191 86.9256 45.7521V45.6934C86.9256 45.4253 86.825 45.2075 86.6198 45.0399C86.4145 44.8724 86.1129 44.7886 85.7191 44.7886C85.3756 44.7886 85.1117 44.8556 84.9232 44.9855C84.7347 45.1153 84.6426 45.3038 84.6426 45.5426C84.6426 45.6976 84.6887 45.8233 84.7766 45.9238C84.8688 46.0243 84.9903 46.1081 85.1452 46.1751C85.3002 46.2422 85.539 46.3343 85.8574 46.4474C86.3349 46.6024 86.7077 46.7407 86.9758 46.8621C87.2439 46.9836 87.4701 47.1512 87.6544 47.369C87.8388 47.5868 87.9309 47.8717 87.9309 48.2194C87.9309 48.7304 87.7424 49.1368 87.3612 49.4384C86.98 49.74 86.4522 49.8908 85.7778 49.8908C85.1034 49.8908 84.5714 49.7484 84.186 49.4593L84.1902 49.4551Z" fill="#DDC9AF"/>
    <path d="M96.7068 44.4786C97.0419 44.797 97.2094 45.2201 97.2094 45.7395C97.2094 46.2589 97.0377 46.6611 96.6942 46.9711C96.3507 47.281 95.9025 47.4402 95.3453 47.4402H93.9462C93.9211 47.4402 93.9043 47.4528 93.9043 47.4821V49.7148C93.9043 49.7819 93.8708 49.8154 93.8038 49.8154H93.0372C92.9702 49.8154 92.9367 49.7819 92.9367 49.7148V44.1016C92.9367 44.0346 92.9702 44.0011 93.0372 44.0011H95.383C95.9276 44.0011 96.3675 44.1602 96.7026 44.4786H96.7068ZM95.9862 46.4097C96.158 46.2464 96.2418 46.0285 96.2418 45.7604C96.2418 45.4923 96.158 45.2619 95.9862 45.0902C95.8145 44.9184 95.5883 44.8347 95.3076 44.8347H93.9504C93.9253 44.8347 93.9085 44.8472 93.9085 44.8766V46.6192C93.9085 46.6443 93.9211 46.6611 93.9504 46.6611H95.3076C95.5883 46.6611 95.8145 46.5773 95.9862 46.4139V46.4097Z" fill="#DDC9AF"/>
    <path d="M102.333 49.7358L102.06 48.8519C102.06 48.8519 102.039 48.8226 102.018 48.8226H99.6726C99.6726 48.8226 99.639 48.831 99.6307 48.8519L99.3584 49.7358C99.3374 49.7902 99.2997 49.8154 99.2369 49.8154H98.4829C98.4075 49.8154 98.3824 49.7777 98.4033 49.7065L100.276 44.0932C100.297 44.0388 100.334 44.0136 100.397 44.0136H101.281C101.34 44.0136 101.382 44.0388 101.403 44.0932L103.283 49.7065L103.292 49.7484C103.292 49.7944 103.263 49.8196 103.2 49.8196H102.446C102.387 49.8196 102.345 49.7944 102.324 49.74L102.333 49.7358ZM99.903 48.0392C99.903 48.0392 99.9239 48.056 99.9365 48.056H101.759C101.759 48.056 101.784 48.0518 101.792 48.0392C101.801 48.0267 101.805 48.0183 101.796 48.0057L100.871 45.0693C100.871 45.0693 100.854 45.0483 100.841 45.0483C100.829 45.0483 100.816 45.0567 100.812 45.0693L99.8946 48.0057C99.8946 48.0057 99.8904 48.0309 99.8988 48.0392H99.903Z" fill="#DDC9AF"/>
    <path d="M105.914 49.7065V47.524C105.914 47.4989 105.914 47.4821 105.906 47.4738L104.125 44.1309L104.105 44.0807C104.105 44.0807 104.113 44.043 104.13 44.0304C104.146 44.0178 104.167 44.0095 104.197 44.0095H105.03C105.089 44.0095 105.131 44.0346 105.152 44.0807L106.371 46.5354C106.371 46.5354 106.388 46.5564 106.4 46.5564C106.413 46.5564 106.425 46.548 106.429 46.5354L107.657 44.0807C107.678 44.0346 107.715 44.0095 107.778 44.0095H108.612C108.645 44.0095 108.671 44.022 108.687 44.043C108.704 44.0681 108.704 44.0932 108.683 44.1268L106.89 47.4696C106.89 47.4696 106.882 47.4947 106.882 47.5198V49.7023C106.882 49.7693 106.848 49.8028 106.781 49.8028H106.015C105.948 49.8028 105.914 49.7693 105.914 49.7023V49.7065Z" fill="#DDC9AF"/>
    <path d="M110.974 49.4551C110.593 49.1661 110.401 48.7598 110.401 48.2361V48.056C110.401 47.989 110.434 47.9555 110.501 47.9555H111.247C111.314 47.9555 111.347 47.989 111.347 48.056V48.1565C111.347 48.4163 111.456 48.6341 111.678 48.8016C111.9 48.9692 112.219 49.053 112.633 49.053C112.994 49.053 113.274 48.9818 113.463 48.8352C113.655 48.6927 113.748 48.5 113.748 48.2571C113.748 48.0476 113.647 47.8759 113.45 47.7376C113.253 47.5994 112.914 47.4402 112.428 47.2601C111.959 47.1051 111.603 46.9753 111.356 46.8621C111.113 46.7532 110.903 46.594 110.731 46.3846C110.56 46.1751 110.476 45.9029 110.476 45.5594C110.476 45.0483 110.656 44.6504 111.012 44.3655C111.368 44.0807 111.879 43.9382 112.537 43.9382C113.195 43.9382 113.731 44.089 114.104 44.3906C114.476 44.6923 114.661 45.1153 114.661 45.6599V45.7521C114.661 45.8191 114.627 45.8526 114.56 45.8526H113.806C113.739 45.8526 113.706 45.8191 113.706 45.7521V45.6934C113.706 45.4253 113.605 45.2075 113.4 45.0399C113.195 44.8724 112.897 44.7886 112.499 44.7886C112.156 44.7886 111.892 44.8556 111.703 44.9855C111.515 45.1153 111.423 45.3038 111.423 45.5426C111.423 45.6976 111.469 45.8233 111.557 45.9238C111.649 46.0243 111.77 46.1081 111.925 46.1751C112.08 46.2422 112.319 46.3343 112.642 46.4474C113.119 46.6024 113.492 46.7407 113.76 46.8621C114.028 46.9836 114.254 47.1512 114.439 47.369C114.623 47.5868 114.715 47.8717 114.715 48.2194C114.715 48.7304 114.527 49.1368 114.145 49.4384C113.768 49.74 113.236 49.8908 112.562 49.8908C111.888 49.8908 111.356 49.7484 110.97 49.4593L110.974 49.4551Z" fill="#DDC9AF"/>
    <path d="M120.333 49.7358L120.06 48.8519C120.06 48.8519 120.039 48.8226 120.018 48.8226H117.673C117.673 48.8226 117.639 48.831 117.631 48.8519L117.358 49.7358C117.338 49.7902 117.3 49.8154 117.237 49.8154H116.483C116.408 49.8154 116.382 49.7777 116.403 49.7065L118.276 44.0932C118.297 44.0388 118.335 44.0136 118.397 44.0136H119.281C119.34 44.0136 119.382 44.0388 119.403 44.0932L121.284 49.7065L121.292 49.7484C121.292 49.7944 121.263 49.8196 121.2 49.8196H120.446C120.387 49.8196 120.345 49.7944 120.324 49.74L120.333 49.7358ZM117.903 48.0392C117.903 48.0392 117.924 48.056 117.937 48.056H119.759C119.759 48.056 119.784 48.0518 119.792 48.0392C119.801 48.0267 119.805 48.0183 119.796 48.0057L118.871 45.0693C118.871 45.0693 118.854 45.0483 118.841 45.0483C118.829 45.0483 118.816 45.0567 118.812 45.0693L117.895 48.0057C117.895 48.0057 117.89 48.0309 117.899 48.0392H117.903Z" fill="#DDC9AF"/>
    <path d="M123.654 49.3211C123.231 48.9441 123.022 48.4163 123.022 47.746V46.0872C123.022 45.417 123.236 44.8934 123.654 44.5122C124.078 44.1352 124.647 43.9425 125.364 43.9425C126.08 43.9425 126.62 44.131 127.039 44.508C127.458 44.885 127.668 45.3918 127.668 46.0369V46.0453C127.668 46.1123 127.634 46.1459 127.567 46.1459H126.813C126.746 46.1459 126.712 46.1123 126.712 46.0453C126.712 45.6432 126.591 45.329 126.352 45.1112C126.113 44.8934 125.782 44.7803 125.368 44.7803C124.953 44.7803 124.61 44.8934 124.358 45.1237C124.107 45.3541 123.981 45.6851 123.981 46.1207V47.7712C123.981 48.1859 124.107 48.5043 124.358 48.7263C124.61 48.9483 124.949 49.0572 125.368 49.0572C125.787 49.0572 126.113 48.9483 126.352 48.7263C126.591 48.5043 126.712 48.1859 126.712 47.7712V47.6706C126.712 47.6455 126.7 47.6288 126.671 47.6288H125.523C125.456 47.6288 125.422 47.5952 125.422 47.5282V46.9041C125.422 46.837 125.456 46.8035 125.523 46.8035H127.567C127.634 46.8035 127.668 46.837 127.668 46.9041V47.7502C127.668 48.4163 127.458 48.9357 127.039 49.3211C126.62 49.7023 126.059 49.895 125.364 49.895C124.668 49.895 124.078 49.7065 123.654 49.3253V49.3211Z" fill="#DDC9AF"/>
    <path d="M133.809 44.8556H130.851C130.826 44.8556 130.809 44.8682 130.809 44.8975V46.4391C130.809 46.4642 130.822 46.481 130.851 46.481H132.854C132.921 46.481 132.954 46.5145 132.954 46.5815V47.214C132.954 47.2811 132.921 47.3146 132.854 47.3146H130.851C130.826 47.3146 130.809 47.3271 130.809 47.3565V48.9483C130.809 48.9734 130.822 48.9902 130.851 48.9902H133.809C133.876 48.9902 133.909 49.0237 133.909 49.0907V49.7232C133.909 49.7902 133.876 49.8238 133.809 49.8238H129.946C129.879 49.8238 129.846 49.7902 129.846 49.7232V44.1267C129.846 44.0597 129.879 44.0262 129.946 44.0262H133.809C133.876 44.0262 133.909 44.0597 133.909 44.1267V44.7593C133.909 44.8263 133.876 44.8598 133.809 44.8598V44.8556Z" fill="#DDC9AF"/>
    <path d="M139.179 49.7484L138.044 47.4151C138.044 47.4151 138.023 47.3858 138.002 47.3858H136.967C136.942 47.3858 136.925 47.3983 136.925 47.4277V49.7232C136.925 49.7903 136.892 49.8238 136.825 49.8238H136.062C135.995 49.8238 135.962 49.7903 135.962 49.7232V44.11C135.962 44.043 135.995 44.0095 136.062 44.0095H138.379C138.907 44.0095 139.338 44.1645 139.661 44.4786C139.987 44.7886 140.151 45.2033 140.151 45.7102C140.151 46.0998 140.05 46.4349 139.845 46.7155C139.64 46.9962 139.359 47.1931 139.003 47.2978C138.982 47.3104 138.978 47.3271 138.982 47.3481L140.188 49.7023C140.188 49.7023 140.197 49.7316 140.197 49.7526C140.197 49.7986 140.172 49.8238 140.117 49.8238H139.3C139.242 49.8238 139.2 49.7986 139.179 49.7526V49.7484ZM136.925 44.8766V46.5857C136.925 46.6108 136.938 46.6276 136.967 46.6276H138.266C138.542 46.6276 138.764 46.5438 138.936 46.3804C139.108 46.2171 139.191 46.0034 139.191 45.7395C139.191 45.4756 139.108 45.2536 138.936 45.086C138.764 44.9185 138.542 44.8347 138.266 44.8347H136.967C136.942 44.8347 136.925 44.8473 136.925 44.8766Z" fill="#DDC9AF"/>
    <path d="M142.501 49.4551C142.12 49.1661 141.927 48.7598 141.927 48.2361V48.056C141.927 47.989 141.96 47.9555 142.027 47.9555H142.773C142.84 47.9555 142.874 47.989 142.874 48.056V48.1565C142.874 48.4163 142.982 48.6341 143.205 48.8016C143.427 48.9692 143.745 49.053 144.16 49.053C144.52 49.053 144.801 48.9818 144.989 48.8352C145.182 48.6927 145.274 48.5 145.274 48.2571C145.274 48.0476 145.173 47.8759 144.976 47.7376C144.78 47.5994 144.44 47.4402 143.954 47.2601C143.485 47.1051 143.129 46.9753 142.882 46.8621C142.639 46.7532 142.43 46.594 142.258 46.3846C142.086 46.1751 142.002 45.9029 142.002 45.5594C142.002 45.0483 142.182 44.6504 142.538 44.3655C142.899 44.0807 143.406 43.9382 144.063 43.9382C144.721 43.9382 145.257 44.089 145.63 44.3906C146.003 44.6923 146.187 45.1153 146.187 45.6599V45.7521C146.187 45.8191 146.154 45.8526 146.087 45.8526H145.333C145.266 45.8526 145.232 45.8191 145.232 45.7521V45.6934C145.232 45.4253 145.131 45.2075 144.926 45.0399C144.721 44.8724 144.424 44.7886 144.026 44.7886C143.682 44.7886 143.418 44.8556 143.23 44.9855C143.041 45.1153 142.949 45.3038 142.949 45.5426C142.949 45.6976 142.995 45.8233 143.083 45.9238C143.175 46.0243 143.297 46.1081 143.452 46.1751C143.607 46.2422 143.845 46.3343 144.168 46.4474C144.646 46.6024 145.018 46.7407 145.286 46.8621C145.555 46.9836 145.781 47.1512 145.965 47.369C146.149 47.5868 146.242 47.8717 146.242 48.2194C146.242 48.7304 146.053 49.1368 145.672 49.4384C145.295 49.74 144.763 49.8908 144.088 49.8908C143.414 49.8908 142.882 49.7484 142.497 49.4593L142.501 49.4551Z" fill="#DDC9AF"/>
</svg>
