<svg width="25" height="26" viewBox="0 0 25 26" fill="none" xmlns="http://www.w3.org/2000/svg">
    <path d="M17.1875 5.91602H7.8125C5.9477 5.91602 4.15927 6.65681 2.84066 7.97542C1.52204 9.29404 0.78125 11.0825 0.78125 12.9473C0.78125 14.8121 1.52204 16.6005 2.84066 17.9191C4.15927 19.2377 5.9477 19.9785 7.8125 19.9785H17.1875C19.0523 19.9785 20.8407 19.2377 22.1593 17.9191C23.478 16.6005 24.2188 14.8121 24.2188 12.9473C24.2188 11.0825 23.478 9.29404 22.1593 7.97542C20.8407 6.65681 19.0523 5.91602 17.1875 5.91602ZM17.1875 18.416H7.8125C6.3621 18.416 4.9711 17.8398 3.94551 16.8143C2.91992 15.7887 2.34375 14.3977 2.34375 12.9473C2.34375 11.4969 2.91992 10.1059 3.94551 9.08028C4.9711 8.05469 6.3621 7.47852 7.8125 7.47852H17.1875C18.6379 7.47852 20.0289 8.05469 21.0545 9.08028C22.0801 10.1059 22.6562 11.4969 22.6562 12.9473C22.6562 14.3977 22.0801 15.7887 21.0545 16.8143C20.0289 17.8398 18.6379 18.416 17.1875 18.416ZM17.1875 9.04102C16.4149 9.04102 15.6597 9.27011 15.0173 9.69934C14.3749 10.1286 13.8743 10.7386 13.5786 11.4524C13.2829 12.1662 13.2056 12.9516 13.3563 13.7093C13.507 14.4671 13.8791 15.1631 14.4254 15.7094C14.9717 16.2557 15.6677 16.6277 16.4254 16.7785C17.1832 16.9292 17.9686 16.8518 18.6824 16.5562C19.3961 16.2605 20.0062 15.7598 20.4354 15.1175C20.8647 14.4751 21.0938 13.7198 21.0938 12.9473C21.0938 11.9113 20.6822 10.9177 19.9496 10.1851C19.2171 9.45257 18.2235 9.04102 17.1875 9.04102ZM17.1875 15.291C16.724 15.291 16.2708 15.1536 15.8854 14.896C15.5 14.6385 15.1995 14.2724 15.0222 13.8442C14.8448 13.4159 14.7984 12.9447 14.8888 12.49C14.9792 12.0354 15.2024 11.6178 15.5302 11.29C15.858 10.9622 16.2756 10.739 16.7303 10.6486C17.1849 10.5581 17.6562 10.6045 18.0844 10.7819C18.5127 10.9593 18.8787 11.2597 19.1363 11.6451C19.3938 12.0306 19.5312 12.4837 19.5312 12.9473C19.5312 13.5689 19.2843 14.165 18.8448 14.6045C18.4052 15.0441 17.8091 15.291 17.1875 15.291Z" fill="#304595"/>
</svg>
