<svg width="18" height="20" viewBox="0 0 18 20" fill="none" xmlns="http://www.w3.org/2000/svg">
    <path d="M16.6214 9.00626L2.10855 0.722731C1.86392 0.585503 1.58332 0.525952 1.30404 0.551989C1.02475 0.578027 0.760002 0.688419 0.544952 0.868503C0.329901 1.04859 0.174731 1.28984 0.100053 1.56021C0.0253746 1.83058 0.0347242 2.11727 0.126859 2.3822L2.80482 10.1975C2.80447 10.2004 2.80447 10.2033 2.80482 10.2062C2.80433 10.209 2.80433 10.2119 2.80482 10.2148L0.126859 18.0474C0.0530736 18.2558 0.0303562 18.4789 0.0606138 18.6979C0.0908713 18.9169 0.173221 19.1254 0.300751 19.306C0.428281 19.4866 0.59727 19.634 0.793534 19.7357C0.989799 19.8375 1.20761 19.8907 1.42869 19.8909C1.66856 19.8903 1.90421 19.8278 2.11287 19.7095L16.6179 11.4121C16.8319 11.2923 17.0101 11.1176 17.1343 10.9061C17.2585 10.6947 17.3241 10.454 17.3246 10.2087C17.325 9.96348 17.2602 9.72253 17.1368 9.51061C17.0133 9.29869 16.8357 9.12343 16.6222 9.00281L16.6214 9.00626ZM1.42869 18.5087V18.5009L4.03236 10.9067H9.03064C9.21393 10.9067 9.38971 10.8339 9.51931 10.7043C9.64892 10.5747 9.72173 10.3989 9.72173 10.2157C9.72173 10.0324 9.64892 9.85659 9.51931 9.72699C9.38971 9.59739 9.21393 9.52458 9.03064 9.52458H4.03927L1.43388 1.933L1.42869 1.92263L15.9415 10.201L1.42869 18.5087Z" fill="#DDC9AF"/>
</svg>
