<svg width="45" height="45" viewBox="0 0 45 45" fill="none" xmlns="http://www.w3.org/2000/svg">
<g clip-path="url(#clip0_1443_371)">
<path d="M22.5 45C34.9264 45 45 34.9264 45 22.5C45 10.0736 34.9264 0 22.5 0C10.0736 0 0 10.0736 0 22.5C0 34.9264 10.0736 45 22.5 45Z" fill="#DDC9AF"/>
<path d="M6.07013 12.6355L6.19097 13.4706C6.25944 13.9459 6.63404 14.3192 7.10933 14.389L7.94446 14.5098L7.10933 14.6307C6.63404 14.6991 6.26078 15.0737 6.19097 15.549L6.07013 16.3842L5.94929 15.549C5.88082 15.0737 5.50622 14.7005 5.03092 14.6307L4.1958 14.5098L5.03092 14.389C5.50622 14.3205 5.87947 13.9459 5.94929 13.4706L6.07013 12.6355Z" fill="#27397A"/>
<path d="M39.0185 12.6355L39.1393 13.4706C39.2078 13.9459 39.5824 14.3192 40.0577 14.389L40.8928 14.5098L40.0577 14.6307C39.5824 14.6991 39.2092 15.0737 39.1393 15.549L39.0185 16.3842L38.8977 15.549C38.8292 15.0737 38.4546 14.7005 37.9793 14.6307L37.1442 14.5098L37.9793 14.389C38.4546 14.3205 38.8278 13.9459 38.8977 13.4706L39.0185 12.6355Z" fill="#27397A"/>
<path d="M12.0368 9.20644L12.6034 10.2174L10.6552 12.0622L10.6458 12.0528C10.721 11.8729 10.7264 11.6863 10.5035 11.45L8.07733 8.88823C7.85446 8.65327 7.66783 8.6479 7.48389 8.71369L7.47449 8.70429L9.38373 6.89575L10.3531 7.53485L10.3477 7.55767C9.94629 7.53754 9.72207 7.71342 9.44414 7.97658L8.92588 8.46799L9.63883 9.22121L10.0376 8.84393C10.2726 8.62105 10.2779 8.43442 10.2121 8.25048L10.2215 8.24108L11.2164 9.29237L11.207 9.30177C11.0271 9.22658 10.8405 9.22121 10.6042 9.44409L10.2054 9.82137L10.9694 10.627L11.5266 10.0993C11.8045 9.83614 11.9979 9.61594 12.0086 9.21449L12.0368 9.20644Z" fill="#27397A"/>
<path d="M12.9484 9.7959C13.0665 9.64016 13.1176 9.46024 12.9605 9.17695L11.2526 6.09021C11.0955 5.80691 10.917 5.75455 10.7223 5.77201L10.7156 5.75992L11.7212 5.20407L13.86 6.84478L13.6063 4.16083L14.6119 3.60498L14.6186 3.61706C14.5005 3.77281 14.4495 3.95272 14.6066 4.23602L16.3144 7.32276C16.4715 7.60605 16.6501 7.65842 16.8447 7.64096L16.8515 7.65305L15.5625 8.36599L15.5558 8.35391C15.674 8.19816 15.725 8.01825 15.5679 7.73495L14.5408 5.87942L14.7099 8.38344L12.6785 6.90922L13.7056 8.76475C13.8627 9.04805 14.0413 9.09907 14.236 9.08296L14.2427 9.09504L12.9538 9.80799L12.947 9.7959H12.9484Z" fill="#27397A"/>
<path d="M17.1979 7.5979C17.3523 7.47841 17.449 7.31863 17.3697 7.00311L16.5199 3.57937C16.442 3.2652 16.2822 3.16853 16.0889 3.13496L16.0862 3.12153L17.6316 2.73754C18.4398 2.53748 19.1219 2.98056 19.2897 3.65993C19.3851 4.04527 19.279 4.41181 18.9688 4.72733C19.4831 4.79715 19.8107 5.10327 19.9208 5.54635C20.1155 6.32911 19.5784 7.02057 18.7768 7.21928L17.1992 7.61133L17.1965 7.5979H17.1979ZM17.9847 4.57024C18.3499 4.47894 18.4801 4.18222 18.417 3.92578C18.3539 3.66933 18.0988 3.46659 17.7336 3.55789L17.4584 3.62637L17.7094 4.64006L17.9847 4.57159V4.57024ZM18.5164 6.4392C18.9782 6.32508 19.0776 5.98673 19.0145 5.73029C18.9514 5.47384 18.7043 5.22143 18.2425 5.33689L17.9028 5.42148L18.1767 6.52379L18.5164 6.4392Z" fill="#27397A"/>
<path d="M23.5594 5.6177L23.307 6.74821L20.6257 6.82339V6.80997C20.8016 6.72538 20.9305 6.58977 20.9211 6.2662L20.8231 2.73908C20.8137 2.4155 20.6781 2.28661 20.4982 2.21276V2.19933L23.1271 2.12549L23.4224 3.24794L23.4036 3.26136C23.1177 2.97807 22.833 2.95927 22.4504 2.97001L21.7374 2.99015L21.767 4.02667L22.3148 4.0119C22.6383 4.0025 22.7672 3.8669 22.8411 3.68698H22.8545L22.8948 5.13301H22.8814C22.7968 4.95712 22.6612 4.82957 22.3376 4.83763L21.7898 4.85239L21.8207 5.96142L22.5873 5.93994C22.97 5.92919 23.26 5.89429 23.5366 5.60293L23.5634 5.61502L23.5594 5.6177Z" fill="#27397A"/>
<path d="M26.9227 6.16282L26.4272 7.22351L23.942 6.78715L23.9447 6.77373C24.134 6.72673 24.2871 6.61932 24.3435 6.29977L24.9544 2.82502C25.0108 2.50547 24.9033 2.35375 24.7409 2.24365L24.7436 2.23022L26.246 2.49473L26.2433 2.50815C26.054 2.55514 25.9009 2.66256 25.8445 2.9821L25.282 6.18296L25.913 6.2944C26.2903 6.36019 26.5816 6.38436 26.9106 6.15477L26.9227 6.16417V6.16282Z" fill="#27397A"/>
<path d="M30.0402 7.34687L29.3461 8.28806L26.9951 7.3697L27.0005 7.35761C27.1952 7.34821 27.367 7.27437 27.4852 6.97227L28.7701 3.68549C28.8882 3.38339 28.8131 3.21288 28.6761 3.07458L28.6815 3.0625L30.1033 3.61835L30.098 3.63044C29.9033 3.63984 29.7314 3.71368 29.6133 4.01578L28.4304 7.04343L29.0279 7.27705C29.385 7.41669 29.6656 7.49725 30.0335 7.33613L30.0429 7.34687H30.0402Z" fill="#27397A"/>
<path d="M29.9329 8.60496C30.1262 8.62913 30.3075 8.58348 30.4753 8.30555L32.2919 5.28058C32.4584 5.00265 32.4127 4.82139 32.3013 4.66162L32.308 4.65088L33.6171 5.43632L33.6104 5.44707C33.417 5.4229 33.2358 5.46855 33.0679 5.74647L31.2513 8.77145C31.0848 9.04938 31.1305 9.23063 31.2419 9.39041L31.2352 9.40115L29.9261 8.6157L29.9329 8.60496Z" fill="#27397A"/>
<path d="M34.3005 11.9267L34.2911 11.9361L33.1418 10.9224L33.1499 10.913C33.3204 10.9492 33.4614 10.8888 33.5956 10.5572L34.0145 9.5341C33.9649 9.49919 33.9165 9.45622 33.8709 9.41594L33.6775 9.24543L32.974 10.043C32.7592 10.286 32.7713 10.4726 32.8532 10.6498L32.8438 10.6592L31.6998 9.64956L31.7079 9.64017C31.8945 9.69924 32.0811 9.68716 32.2946 9.44414L34.6295 6.79913C34.8443 6.55612 34.8322 6.36949 34.7503 6.19226L34.7584 6.18286L35.8634 7.15762C36.587 7.79537 36.677 8.7218 36.0997 9.37567C35.7586 9.76235 35.2914 9.93152 34.8201 9.86707L34.2884 11.2393C34.1716 11.5413 34.2173 11.7495 34.2992 11.9267H34.3005ZM34.4321 8.78222C34.749 9.06149 35.1652 9.04135 35.4096 8.76342C35.6539 8.48549 35.6244 8.07196 35.3062 7.79135L35.1128 7.62083L34.2388 8.6117L34.4321 8.78222Z" fill="#27397A"/>
<path d="M2.88936 21.1788L3.31363 21.0942L3.32974 21.0767L3.44118 19.9879L3.4291 19.9677L3.03033 19.7999C3.00617 19.7878 2.99542 19.7677 2.99811 19.7395L3.03436 19.389C3.03839 19.3541 3.05584 19.3447 3.08941 19.3568L5.60955 20.4914C5.63372 20.5034 5.64446 20.5236 5.64177 20.5518L5.60015 20.9626C5.59747 20.9908 5.5827 21.0083 5.55719 21.015L2.85982 21.6232L2.84102 21.6259C2.81954 21.6232 2.81014 21.6084 2.81283 21.5802L2.84908 21.2298C2.85176 21.2016 2.86653 21.1842 2.89204 21.1774L2.88936 21.1788ZM3.79161 20.1302L3.78356 20.1463L3.69763 20.9922L3.703 21.0096L3.71911 21.0136L5.12754 20.7223L5.13828 20.7089L5.13023 20.6941L3.80907 20.1302H3.79295H3.79161Z" fill="#27397A"/>
<path d="M5.62967 24.4832L5.65518 24.839C5.65787 24.8698 5.6431 24.8873 5.61222 24.89L3.00212 25.0806C2.97124 25.0833 2.95379 25.0686 2.9511 25.0377L2.92559 24.6819C2.92291 24.651 2.93767 24.6335 2.96856 24.6322L4.87645 24.4926L4.8939 24.4818L4.88316 24.4684L4.05341 24.0065C4.03059 23.9918 4.0185 23.9743 4.01716 23.9528L4.00508 23.789C4.00373 23.7635 4.01179 23.7447 4.02924 23.7313L4.78784 23.1486L4.79589 23.1338L4.77709 23.1258L2.8692 23.2654C2.83832 23.2681 2.82086 23.2533 2.81952 23.2224L2.79401 22.8666C2.79133 22.8357 2.8061 22.8183 2.83698 22.8169L5.44707 22.6263C5.47795 22.6236 5.49541 22.6384 5.49809 22.6693L5.5236 23.0251C5.52495 23.0465 5.51555 23.0667 5.49541 23.0841L4.53139 23.8186L4.52736 23.8333L4.53273 23.8467L5.59342 24.4335C5.61625 24.4469 5.62833 24.4657 5.62967 24.4872V24.4832Z" fill="#27397A"/>
<path d="M5.88743 27.6585L5.55177 26.3185C5.54908 26.3065 5.54103 26.3024 5.52894 26.3051L4.83077 26.4797C4.81869 26.4824 4.81466 26.4904 4.81734 26.5025L5.04425 27.4101C5.05231 27.441 5.04022 27.4598 5.01068 27.4665L4.72336 27.539C4.69248 27.5471 4.67368 27.535 4.66697 27.5054L4.44006 26.5978C4.43738 26.5857 4.42932 26.5817 4.41724 26.5844L3.69758 26.7643C3.6855 26.767 3.68147 26.775 3.68415 26.7871L4.01981 28.1271C4.02787 28.158 4.01579 28.1768 3.98625 28.1835L3.69892 28.256C3.66804 28.264 3.64925 28.252 3.64253 28.2224L3.20483 26.4716C3.19678 26.4407 3.20886 26.4219 3.2384 26.4152L5.77331 25.7815C5.80419 25.7734 5.82298 25.7855 5.8297 25.8151L6.2674 27.5659C6.27545 27.5967 6.26337 27.6155 6.23383 27.6223L5.94651 27.6948C5.91563 27.7028 5.89683 27.6907 5.89012 27.6612L5.88743 27.6585ZM6.40032 26.3897C6.40972 26.379 6.4218 26.3776 6.43926 26.3817L6.99914 26.528C7.02331 26.532 7.03807 26.5468 7.04479 26.575L7.12132 26.8798C7.12535 26.8986 7.124 26.9107 7.11461 26.9187C7.10521 26.9254 7.09178 26.9268 7.07433 26.9214L6.50102 26.7213C6.47551 26.7119 6.46074 26.6958 6.45537 26.6743L6.39495 26.4327C6.39092 26.4139 6.39226 26.4004 6.40166 26.3897H6.40032Z" fill="#27397A"/>
<path d="M7.20728 29.9006L7.35094 30.2282C7.36303 30.2564 7.35497 30.2778 7.32678 30.2899L4.93419 31.3399C4.90599 31.3519 4.88451 31.3439 4.87242 31.3157L4.72473 30.98C4.71534 30.9599 4.71802 30.9384 4.73279 30.9156L5.94251 29.1218L5.94788 29.1044L5.92908 29.1017L4.27495 29.8334C4.24675 29.8455 4.22527 29.8374 4.21319 29.8093L4.06952 29.4816C4.05744 29.4535 4.0655 29.432 4.09369 29.4199L6.48628 28.3699C6.51448 28.3579 6.53596 28.3659 6.54804 28.3941L6.69573 28.7298C6.70513 28.7499 6.70245 28.7714 6.68768 28.7942L5.47393 30.5893L5.46856 30.6068L5.48735 30.6095L7.14686 29.8764C7.17506 29.8643 7.19654 29.8724 7.20862 29.9006H7.20728Z" fill="#27397A"/>
<path d="M6.50112 33.9191L6.77502 33.5848V33.562L6.17083 32.649L6.14801 32.6409L5.73313 32.7631C5.70762 32.7698 5.68614 32.7604 5.67003 32.7362L5.47535 32.4422C5.45655 32.414 5.46326 32.3939 5.49817 32.3818L8.166 31.6608C8.19151 31.6554 8.21299 31.6635 8.2291 31.6876L8.45735 32.0327C8.47347 32.0555 8.47347 32.0783 8.45735 32.0998L6.75757 34.2816L6.74414 34.2964C6.72535 34.3085 6.70923 34.3031 6.69312 34.2789L6.49844 33.9849C6.48233 33.9621 6.48233 33.9392 6.49844 33.9178L6.50112 33.9191ZM6.53335 32.5362L6.53603 32.5536L7.00596 33.2625L7.02073 33.2719L7.0355 33.2652L7.94044 32.1468V32.1294L7.92432 32.1226L6.54409 32.5241L6.532 32.5348L6.53335 32.5362Z" fill="#27397A"/>
<path d="M7.76715 35.2189C7.76178 34.9544 7.87322 34.7141 8.10147 34.5006L8.66807 33.9703C8.89632 33.7568 9.14336 33.6601 9.40786 33.6843C9.67236 33.7085 9.91807 33.8414 10.1477 34.0857C10.3705 34.3234 10.4847 34.5745 10.49 34.8363C10.4954 35.0994 10.3893 35.3331 10.1691 35.5385L10.1651 35.5412C10.1423 35.5626 10.1208 35.5613 10.0993 35.5385L9.85899 35.2807C9.83751 35.2579 9.83885 35.2364 9.86168 35.2149C9.99862 35.086 10.0671 34.9464 10.0658 34.7933C10.0644 34.6403 9.99728 34.4926 9.86436 34.3516C9.7301 34.2079 9.58241 34.1287 9.42532 34.1153C9.26688 34.1019 9.11382 34.165 8.96479 34.3046L8.40222 34.8309C8.2599 34.9638 8.19143 35.1088 8.1968 35.2646C8.20217 35.4217 8.27199 35.5707 8.40625 35.7157C8.53917 35.858 8.68149 35.9346 8.83455 35.9466C8.98762 35.9587 9.13396 35.8983 9.27628 35.7654L9.31119 35.7332V35.7063L8.94599 35.3156C8.92451 35.2928 8.92585 35.2713 8.94868 35.2498L9.16082 35.0511C9.18364 35.0296 9.20512 35.031 9.22795 35.0538L9.87913 35.7506C9.90061 35.7734 9.89927 35.7949 9.87644 35.8164L9.58778 36.0863C9.36087 36.2984 9.11651 36.3937 8.85201 36.3723C8.58751 36.3508 8.34449 36.2219 8.12161 35.9842C7.89202 35.7399 7.77521 35.4848 7.76984 35.2189H7.76715Z" fill="#27397A"/>
<path d="M12.7242 36.8837L11.6273 36.0445L11.6004 36.0485L11.1641 36.6192L11.1681 36.646L11.9106 37.214C11.9361 37.2328 11.9388 37.2556 11.92 37.2797L11.7401 37.5147C11.7213 37.5402 11.6984 37.5429 11.6743 37.5241L10.9318 36.9562L10.9049 36.9602L10.4538 37.5496L10.4578 37.5765L11.5548 38.4156C11.579 38.4344 11.583 38.4572 11.5642 38.4814L11.3843 38.7164C11.3655 38.7419 11.3426 38.7446 11.3185 38.7258L9.88454 37.6302C9.85903 37.6114 9.85634 37.5886 9.87514 37.5644L11.4621 35.4887C11.4809 35.4632 11.5024 35.4605 11.5279 35.4793L12.9619 36.5749C12.986 36.5937 12.9901 36.6165 12.9713 36.6407L12.7914 36.8756C12.7726 36.9011 12.7511 36.9038 12.7256 36.885L12.7242 36.8837Z" fill="#27397A"/>
<path d="M15.3115 37.8934L15.6284 38.0585C15.6566 38.0733 15.6633 38.0948 15.6485 38.1216L14.4375 40.4417C14.4227 40.4699 14.4012 40.4766 14.3744 40.4619L14.0575 40.2967C14.0293 40.282 14.0226 40.2605 14.0374 40.2336L14.9222 38.5379V38.5164L14.9061 38.5177L14.0763 38.9809C14.0521 38.993 14.0307 38.9944 14.0105 38.9836L13.8642 38.9071C13.8413 38.895 13.8293 38.8789 13.8266 38.8561L13.7299 37.9041L13.7218 37.8894L13.7044 37.9015L12.8196 39.5972C12.8048 39.6254 12.7833 39.6321 12.7565 39.6174L12.4396 39.4522C12.4114 39.4374 12.4047 39.416 12.4195 39.3891L13.6305 37.069C13.6453 37.0408 13.6668 37.0341 13.6936 37.0489L14.0105 37.214C14.0293 37.2248 14.0414 37.2422 14.0454 37.2691L14.1636 38.4761L14.1743 38.4868L14.1891 38.4895L15.2457 37.8961C15.2699 37.884 15.2914 37.8827 15.3115 37.8934Z" fill="#27397A"/>
<path d="M18.0961 39.3273L16.7803 38.9044L16.7561 38.9165L16.5359 39.6012L16.548 39.6254L17.4382 39.9114C17.4677 39.9208 17.4785 39.9409 17.4691 39.9704L17.3791 40.2524C17.3697 40.2819 17.3496 40.2927 17.32 40.2833L16.4299 39.9973L16.4057 40.0094L16.1788 40.7156L16.1909 40.7398L17.5067 41.1627C17.5362 41.1721 17.5469 41.1922 17.5375 41.2218L17.4476 41.5037C17.4382 41.5333 17.418 41.544 17.3885 41.5346L15.6699 40.9828C15.6404 40.9734 15.6297 40.9533 15.639 40.9237L16.4379 38.4358C16.4473 38.4063 16.4675 38.3955 16.497 38.4049L18.2156 38.9567C18.2451 38.9661 18.2559 38.9863 18.2465 39.0158L18.1565 39.2978C18.1471 39.3273 18.127 39.3381 18.0974 39.3287L18.0961 39.3273Z" fill="#27397A"/>
<path d="M20.7008 39.3918L21.0539 39.4428C21.0848 39.4468 21.0982 39.4656 21.0942 39.4965L20.7236 42.0824C20.7196 42.1133 20.7008 42.1268 20.6699 42.1227L20.3074 42.0704C20.2859 42.0677 20.2685 42.0542 20.2564 42.0301L19.3716 40.0564L19.3595 40.043L19.3474 40.0577L19.095 41.8488C19.091 41.8797 19.0722 41.8931 19.0413 41.8891L18.6882 41.8381C18.6573 41.8341 18.6439 41.8153 18.6479 41.7844L19.0198 39.1984C19.0239 39.1676 19.0427 39.1541 19.0735 39.1582L19.436 39.2105C19.4575 39.2132 19.475 39.2266 19.4871 39.2508L20.3705 41.2299L20.3826 41.2433L20.3947 41.2285L20.6485 39.4321C20.6525 39.4012 20.6713 39.3878 20.7022 39.3918H20.7008Z" fill="#27397A"/>
<path d="M23.93 39.4885L23.9367 39.7893C23.9367 39.8202 23.9219 39.8363 23.891 39.8376L23.1257 39.8551C23.1136 39.8551 23.1069 39.8618 23.1069 39.8739L23.1566 42.1241C23.1566 42.155 23.1418 42.1711 23.111 42.1725L22.7538 42.1805C22.7229 42.1805 22.7068 42.1658 22.7055 42.1349L22.6558 39.8846C22.6558 39.8725 22.6491 39.8658 22.637 39.8658L21.8945 39.8819C21.8636 39.8819 21.8475 39.8671 21.8462 39.8363L21.8395 39.5355C21.8395 39.5046 21.8542 39.4885 21.8851 39.4872L23.8816 39.4429C23.9125 39.4429 23.9286 39.4576 23.93 39.4885Z" fill="#27397A"/>
<path d="M25.2457 41.8327C25.0457 41.732 24.9249 41.5614 24.8819 41.3211L24.8671 41.2379C24.8618 41.207 24.8738 41.1882 24.9047 41.1828L25.2471 41.1211C25.278 41.1157 25.2968 41.1278 25.3021 41.1586L25.3102 41.2043C25.3317 41.3251 25.4001 41.4138 25.5156 41.4728C25.6311 41.5319 25.7841 41.544 25.9761 41.5091C26.1426 41.4795 26.2635 41.4232 26.34 41.3412C26.4165 41.2593 26.4447 41.1627 26.4246 41.0512C26.4071 40.9559 26.3481 40.8848 26.2447 40.8378C26.1426 40.7908 25.9721 40.7465 25.7358 40.7021C25.5076 40.6699 25.3317 40.639 25.2108 40.6082C25.0887 40.5773 24.9799 40.5209 24.8846 40.4403C24.7892 40.3584 24.7261 40.2389 24.6979 40.0818C24.6563 39.8469 24.706 39.6495 24.847 39.4897C24.988 39.33 25.2108 39.2212 25.5129 39.1675C25.8204 39.1125 26.0728 39.138 26.2688 39.2467C26.4649 39.3541 26.5857 39.5341 26.63 39.7838L26.6381 39.8254C26.6434 39.8563 26.6314 39.8751 26.6005 39.8805L26.2541 39.9422C26.2232 39.9476 26.2044 39.9355 26.199 39.9046L26.1937 39.8764C26.1722 39.7529 26.1064 39.6616 25.999 39.6012C25.8916 39.5408 25.7466 39.5273 25.564 39.5596C25.4069 39.5878 25.2901 39.6401 25.2149 39.7153C25.1397 39.7905 25.1115 39.8845 25.1316 39.9946C25.1437 40.0657 25.1759 40.1208 25.2256 40.1597C25.2753 40.1987 25.3384 40.2269 25.4149 40.2443C25.4914 40.2618 25.6083 40.2846 25.7653 40.3101C25.9963 40.3423 26.1789 40.3745 26.3131 40.4068C26.4461 40.4403 26.5642 40.4994 26.6676 40.584C26.771 40.6686 26.8368 40.7921 26.865 40.9519C26.9066 41.1868 26.8529 41.3882 26.7039 41.5588C26.5548 41.7293 26.3239 41.8421 26.0124 41.8984C25.7009 41.9548 25.4458 41.932 25.2457 41.8313V41.8327Z" fill="#27397A"/>
<path d="M30.2107 37.888C30.4135 37.9605 30.5652 38.1096 30.6645 38.3324C30.7612 38.55 30.7652 38.7581 30.678 38.9554C30.5907 39.1528 30.4282 39.3045 30.1906 39.4092L29.5931 39.6737L29.5837 39.6979L30.0053 40.6525C30.0187 40.6807 30.0107 40.7022 29.9811 40.7143L29.6549 40.8593C29.6267 40.8714 29.6052 40.8647 29.5931 40.8351L28.5324 38.4372C28.5203 38.409 28.5271 38.3875 28.5566 38.3754L29.5582 37.9323C29.7905 37.8303 30.008 37.8142 30.2121 37.888H30.2107ZM30.2685 38.8494C30.3101 38.7473 30.3061 38.6386 30.255 38.5231C30.2027 38.405 30.1248 38.3271 30.0187 38.2855C29.9127 38.2452 29.8012 38.2505 29.6804 38.3043L29.1004 38.5607L29.091 38.5849L29.4199 39.3287L29.4441 39.3381L30.0241 39.0816C30.1449 39.0279 30.2255 38.9501 30.2671 38.848L30.2685 38.8494Z" fill="#27397A"/>
<path d="M33.6748 38.6707L33.3445 38.3914H33.3217L32.3993 38.9808L32.3913 39.0023L32.5081 39.4185C32.5135 39.4454 32.5041 39.4655 32.4812 39.4803L32.1845 39.6709C32.155 39.6897 32.1362 39.6817 32.1254 39.6481L31.4461 36.9695C31.4407 36.944 31.4501 36.9226 31.4729 36.9078L31.8206 36.6849C31.8448 36.6701 31.8676 36.6701 31.8878 36.6849L34.0427 38.4183L34.0561 38.4317C34.0682 38.4505 34.0615 38.4666 34.0387 38.4827L33.742 38.6734C33.7178 38.6881 33.695 38.6881 33.6748 38.6734V38.6707ZM32.2919 38.617L32.3094 38.6143L33.025 38.1551L33.0344 38.1403L33.0277 38.1256L31.9227 37.2045H31.9066L31.8999 37.2193L32.2812 38.6049L32.2919 38.617Z" fill="#27397A"/>
<path d="M35.1719 37.4919L34.5046 36.7212L34.4858 36.7065L32.8357 36.0714L32.8129 36.0593L32.8062 36.0338L32.8236 36.0069L33.119 35.7518C33.1405 35.733 33.162 35.729 33.1834 35.7398L34.3636 36.2338L34.3797 36.2312L34.3838 36.215L34.0669 34.9731C34.0602 34.9503 34.0669 34.9301 34.0884 34.9113L34.3838 34.6562C34.3958 34.6455 34.4079 34.6428 34.4214 34.6455C34.4348 34.6482 34.4428 34.6589 34.4455 34.6777L34.8349 36.4044L34.847 36.4245L35.5143 37.1952C35.5344 37.2193 35.5331 37.2408 35.5089 37.261L35.239 37.4946C35.2149 37.5147 35.1934 37.5134 35.1732 37.4892L35.1719 37.4919Z" fill="#27397A"/>
<path d="M36.971 35.6069C36.7535 35.6566 36.5508 35.6029 36.3628 35.4458L36.2983 35.3907C36.2742 35.3706 36.2728 35.3491 36.293 35.3249L36.5172 35.0591C36.5373 35.0349 36.5588 35.0336 36.583 35.0537L36.6192 35.0846C36.7132 35.1625 36.8233 35.188 36.9495 35.1598C37.0757 35.1316 37.2019 35.0416 37.3268 34.8939C37.4356 34.765 37.4933 34.6442 37.4987 34.5314C37.504 34.42 37.4638 34.3273 37.3778 34.2548C37.304 34.1931 37.2113 34.1756 37.1039 34.2052C36.9952 34.2347 36.8367 34.3086 36.6259 34.4267C36.4299 34.5489 36.2755 34.6362 36.1614 34.6912C36.0486 34.7449 35.9291 34.7718 35.8029 34.7704C35.6767 34.7704 35.5532 34.7167 35.431 34.6147C35.2484 34.4616 35.1598 34.2777 35.1665 34.0642C35.1732 33.8507 35.2739 33.6251 35.4713 33.3902C35.6727 33.1498 35.8835 33.0089 36.1037 32.9672C36.3238 32.9243 36.5306 32.9847 36.724 33.1485L36.7562 33.1754C36.7803 33.1955 36.7817 33.217 36.7615 33.2411L36.5346 33.511C36.5145 33.5352 36.493 33.5365 36.4689 33.5164L36.4474 33.4989C36.352 33.4184 36.2419 33.3888 36.1211 33.4117C36.0003 33.4345 35.8794 33.5164 35.7613 33.6587C35.6579 33.7809 35.6015 33.895 35.5921 34.0024C35.5827 34.1085 35.6203 34.1985 35.7076 34.271C35.7626 34.3179 35.8217 34.3394 35.8848 34.3367C35.9479 34.3341 36.015 34.3166 36.0849 34.2804C36.156 34.2454 36.2594 34.1877 36.3963 34.1072C36.5951 33.9836 36.7562 33.891 36.8797 33.8319C37.0032 33.7728 37.1321 33.742 37.265 33.742C37.398 33.742 37.5282 33.793 37.6517 33.899C37.8343 34.0521 37.9229 34.2414 37.9162 34.4683C37.9109 34.6952 37.8061 34.9289 37.602 35.1705C37.398 35.4135 37.1872 35.5585 36.9697 35.6096L36.971 35.6069Z" fill="#27397A"/>
<path d="M39.7516 31.9254L39.3313 31.8233L39.3098 31.8327L38.7499 32.7739L38.7526 32.7967L39.044 33.1176C39.0601 33.1391 39.0614 33.1606 39.048 33.1848L38.8681 33.4882C38.8506 33.5177 38.8292 33.5204 38.805 33.4936L36.9978 31.4031C36.9817 31.3816 36.9803 31.3601 36.9938 31.3359L37.2046 30.9801C37.2193 30.956 37.2395 30.9466 37.2663 30.9506L39.9691 31.5347L39.9879 31.54C40.0067 31.5508 40.0093 31.5682 39.9946 31.5937L39.8147 31.8972C39.7999 31.9213 39.7798 31.9307 39.7529 31.9267L39.7516 31.9254ZM38.4908 32.496L38.5056 32.4852L38.9406 31.7535L38.9433 31.7361L38.9299 31.7253L37.5295 31.3964L37.5147 31.4031V31.4205L38.4761 32.4893L38.4922 32.496H38.4908Z" fill="#27397A"/>
<path d="M40.3719 30.2189C40.1356 30.3398 39.8711 30.3438 39.5797 30.231L38.8561 29.9517C38.5634 29.839 38.37 29.6591 38.276 29.4107C38.182 29.1623 38.1955 28.883 38.3163 28.5702C38.4331 28.2667 38.609 28.0546 38.844 27.9351C39.0776 27.8156 39.3354 27.8102 39.616 27.9176H39.62C39.6496 27.9311 39.6576 27.9512 39.6469 27.9807L39.5207 28.3097C39.5099 28.3392 39.4898 28.3473 39.4602 28.3365C39.2844 28.2694 39.1286 28.2694 38.9917 28.3365C38.8547 28.405 38.7513 28.5299 38.6815 28.7111C38.6104 28.8951 38.6036 29.0616 38.6614 29.2093C38.7191 29.357 38.8426 29.4684 39.0319 29.5409L39.7516 29.8188C39.9329 29.8886 40.0926 29.8873 40.2309 29.8148C40.3692 29.7423 40.4739 29.6134 40.5451 29.4295C40.6149 29.2482 40.6216 29.0871 40.5666 28.9434C40.5102 28.8011 40.392 28.695 40.2108 28.6252L40.1665 28.6078L40.1423 28.6185L39.949 29.118C39.9382 29.1475 39.9181 29.1556 39.8885 29.1448L39.6173 29.0401C39.5878 29.0294 39.5784 29.0092 39.5905 28.9797L39.9342 28.0895C39.9449 28.06 39.9664 28.0519 39.9946 28.0626L40.3625 28.205C40.6525 28.3164 40.8445 28.4963 40.9412 28.7434C41.0378 28.9904 41.0271 29.2657 40.9103 29.5704C40.7895 29.8833 40.6109 30.0994 40.3746 30.2203L40.3719 30.2189Z" fill="#27397A"/>
<path d="M39.7073 25.0308L39.4334 26.3842C39.4307 26.3963 39.4361 26.4044 39.4482 26.407L40.153 26.5494C40.1651 26.5521 40.1732 26.5467 40.1759 26.5346L40.3612 25.6176C40.3679 25.5867 40.3867 25.5746 40.4162 25.5813L40.7062 25.6404C40.7371 25.6471 40.7492 25.6646 40.7425 25.6954L40.5572 26.6125C40.5545 26.6246 40.5599 26.6326 40.572 26.6353L41.2997 26.783C41.3117 26.7857 41.3198 26.7803 41.3225 26.7682L41.5964 25.4148C41.6018 25.384 41.6206 25.3719 41.6514 25.3786L41.9414 25.4377C41.9723 25.4444 41.9844 25.4618 41.9777 25.4927L41.6192 27.261C41.6125 27.2918 41.595 27.3039 41.5642 27.2972L39.0037 26.7776C38.9729 26.7709 38.9608 26.7535 38.9675 26.7226L39.326 24.9543C39.3327 24.9234 39.3515 24.9113 39.381 24.9181L39.671 24.9771C39.7019 24.9838 39.714 25.0013 39.7073 25.0322V25.0308Z" fill="#27397A"/>
<path d="M42.155 22.7255L41.0433 23.2116L41.0285 23.2304L41.0083 23.7137C41.0083 23.7258 41.0137 23.7325 41.0258 23.7339L42.0959 23.7782C42.1268 23.7782 42.1415 23.7956 42.1402 23.8265L42.1254 24.1837C42.1254 24.2145 42.108 24.2293 42.0758 24.2293L39.4563 24.1219C39.4254 24.1219 39.4106 24.1044 39.4119 24.0736L39.4563 22.9941C39.4657 22.747 39.5476 22.551 39.6993 22.4047C39.851 22.2583 40.0457 22.1912 40.2833 22.2006C40.4646 22.2073 40.619 22.2623 40.7465 22.363C40.8741 22.4637 40.96 22.598 41.003 22.7658L41.0258 22.7766L42.1469 22.2583L42.1711 22.2543C42.1926 22.2543 42.2033 22.2677 42.202 22.2932L42.1858 22.6732C42.1858 22.7014 42.1724 22.7202 42.1509 22.7282L42.155 22.7255ZM39.8389 23.6842L40.6378 23.7164C40.6499 23.7164 40.6566 23.711 40.6579 23.699L40.6821 23.0934C40.6875 22.9645 40.6539 22.8598 40.58 22.7766C40.5062 22.6933 40.4082 22.649 40.286 22.645C40.1611 22.6396 40.0578 22.6759 39.9759 22.7524C39.894 22.8289 39.851 22.931 39.8456 23.0599L39.8201 23.6654C39.8201 23.6775 39.8255 23.6842 39.8376 23.6855L39.8389 23.6842Z" fill="#27397A"/>
<path d="M41.963 20.9384C41.8502 21.1318 41.6716 21.2419 41.4299 21.2701L41.3467 21.2795C41.3158 21.2835 41.2984 21.2687 41.2943 21.2378L41.254 20.8928C41.25 20.8619 41.2648 20.8444 41.2957 20.8404L41.3427 20.835C41.4635 20.8203 41.5575 20.7572 41.6233 20.6457C41.6891 20.5343 41.7105 20.3812 41.6877 20.1892C41.6676 20.0214 41.6192 19.8965 41.5427 19.816C41.4662 19.7354 41.3709 19.7019 41.2581 19.7139C41.1614 19.7247 41.0876 19.7811 41.0339 19.8804C40.9815 19.9798 40.9251 20.1463 40.8674 20.3799C40.8217 20.6055 40.7788 20.7787 40.7412 20.8982C40.7036 21.0176 40.6405 21.1224 40.5532 21.2137C40.4659 21.305 40.3437 21.3587 40.184 21.3775C39.9477 21.4057 39.753 21.3439 39.6013 21.1922C39.4495 21.0418 39.3555 20.8136 39.3206 20.5088C39.2844 20.1973 39.326 19.9476 39.4455 19.7582C39.565 19.5689 39.7516 19.4602 40.0027 19.4306L40.0443 19.4253C40.0752 19.4212 40.0927 19.436 40.0967 19.4669L40.1383 19.8173C40.1423 19.8482 40.1289 19.8657 40.0967 19.8697L40.0685 19.8724C39.9436 19.8871 39.8483 19.9462 39.7825 20.0509C39.7154 20.1557 39.6939 20.2993 39.7154 20.4819C39.7342 20.6404 39.7785 20.7599 39.8496 20.8404C39.9208 20.921 40.0121 20.9532 40.1235 20.9411C40.1947 20.9331 40.2524 20.9049 40.2941 20.8579C40.3357 20.8109 40.3679 20.7491 40.3907 20.6739C40.4136 20.5987 40.4431 20.4833 40.478 20.3275C40.5237 20.0979 40.5666 19.918 40.6082 19.7864C40.6499 19.6549 40.7156 19.5407 40.8069 19.4441C40.8982 19.3461 41.0245 19.2883 41.1869 19.2695C41.4232 19.2413 41.6219 19.3071 41.783 19.4669C41.9442 19.6267 42.0422 19.863 42.0798 20.1772C42.1174 20.4913 42.0798 20.7451 41.9656 20.9384H41.963Z" fill="#27397A"/>
<path d="M28.3741 27.2099L27.249 31.6581H16.626V31.6058C17.3322 31.2916 17.8558 30.768 17.8558 29.4871V15.5142C17.8558 14.232 17.3322 13.7083 16.626 13.3942V13.3418H27.5752L27.8182 17.1938L27.829 17.6893C26.7294 16.5386 25.7828 16.6111 24.2656 16.6111H21.4393V20.7196H23.6104C24.8926 20.7196 25.4163 20.196 25.7304 19.4898H25.7828V25.2202H25.7304C25.4163 24.5139 24.8926 23.9903 23.6104 23.9903H21.4393V28.3861H24.4751C25.9922 28.3861 27.1442 28.2814 28.2694 27.1562L28.3741 27.2086V27.2099Z" fill="#27397A"/>
</g>
<defs>
<clipPath id="clip0_1443_371">
<rect width="45" height="45" fill="white"/>
</clipPath>
</defs>
</svg>
