<svg width="18" height="19" viewBox="0 0 18 19" fill="none" xmlns="http://www.w3.org/2000/svg">
    <path d="M10.436 1.99224C10.4595 1.90454 10.5 1.82231 10.5552 1.75027C10.6105 1.67822 10.6794 1.61777 10.758 1.57236C10.8366 1.52696 10.9234 1.49749 11.0134 1.48564C11.1034 1.47379 11.1949 1.47979 11.2826 1.5033C12.5637 1.83757 13.7326 2.50731 14.6689 3.44355C15.6051 4.37979 16.2749 5.54869 16.6091 6.82984C16.6326 6.91754 16.6386 7.009 16.6268 7.09901C16.6149 7.18903 16.5855 7.27582 16.5401 7.35444C16.4947 7.43306 16.4342 7.50196 16.3622 7.55721C16.2901 7.61245 16.2079 7.65297 16.1202 7.67642C16.0618 7.69176 16.0017 7.6996 15.9414 7.69975C15.7891 7.69974 15.6411 7.64944 15.5203 7.55664C15.3996 7.46385 15.3128 7.33377 15.2736 7.18662C15.001 6.14076 14.4544 5.18653 13.6901 4.42229C12.9259 3.65805 11.9717 3.11144 10.9258 2.83882C10.838 2.81546 10.7557 2.77501 10.6836 2.7198C10.6114 2.6646 10.5509 2.59571 10.5054 2.51708C10.4599 2.43845 10.4304 2.35163 10.4185 2.26157C10.4065 2.17151 10.4125 2.07999 10.436 1.99224ZM10.2347 5.60317C11.426 5.92107 12.1914 6.68644 12.5093 7.8777C12.5485 8.02486 12.6352 8.15494 12.756 8.24773C12.8767 8.34052 13.0247 8.39083 13.177 8.39083C13.2374 8.39068 13.2975 8.38284 13.3558 8.36751C13.4436 8.34405 13.5258 8.30354 13.5978 8.24829C13.6699 8.19305 13.7303 8.12415 13.7757 8.04553C13.8211 7.96691 13.8506 7.88011 13.8625 7.7901C13.8743 7.70009 13.8683 7.60862 13.8448 7.52093C13.4025 5.86578 12.2467 4.70994 10.5915 4.26764C10.5038 4.24422 10.4124 4.23829 10.3224 4.25021C10.2324 4.26212 10.1456 4.29164 10.0671 4.33709C9.9885 4.38253 9.91965 4.443 9.86445 4.51505C9.80925 4.58711 9.76878 4.66933 9.74535 4.75702C9.72193 4.84471 9.716 4.93616 9.72792 5.02614C9.73983 5.11612 9.76936 5.20287 9.8148 5.28144C9.86024 5.36002 9.92072 5.42887 9.99277 5.48407C10.0648 5.53927 10.147 5.57974 10.2347 5.60317ZM17.3132 13.84C17.1591 15.0106 16.5843 16.0851 15.696 16.8627C14.8076 17.6404 13.6666 18.0682 12.4859 18.066C5.62691 18.066 0.0463945 12.4855 0.0463945 5.62649C0.0442781 4.44585 0.472006 3.30481 1.24969 2.41648C2.02737 1.52815 3.10183 0.953286 4.27239 0.799254C4.56839 0.763111 4.86814 0.823668 5.1269 0.971886C5.38566 1.1201 5.58954 1.34803 5.70812 1.62165L7.53258 5.69473V5.7051C7.62336 5.91455 7.66086 6.14321 7.64171 6.37068C7.62257 6.59815 7.54738 6.81734 7.42287 7.00866C7.40732 7.03199 7.39091 7.05358 7.37363 7.07518L5.57508 9.20718C6.22211 10.522 7.59737 11.8851 8.92944 12.5339L11.0321 10.7448C11.0527 10.7275 11.0744 10.7113 11.0969 10.6965C11.288 10.569 11.508 10.4911 11.7368 10.47C11.9656 10.4489 12.1961 10.4852 12.4073 10.5755L12.4186 10.5807L16.4882 12.4043C16.7623 12.5225 16.9908 12.7262 17.1395 12.985C17.2882 13.2438 17.3491 13.5437 17.3132 13.84ZM15.9414 13.6673C15.9414 13.6673 15.9353 13.6673 15.9319 13.6673L11.8717 11.8489L9.76825 13.6379C9.74784 13.6552 9.7265 13.6713 9.70432 13.6863C9.50542 13.819 9.27551 13.8978 9.03703 13.9151C8.79856 13.9323 8.55968 13.8874 8.34375 13.7848C6.72574 13.003 5.11292 11.4022 4.33026 9.80151C4.22663 9.58715 4.18012 9.34965 4.19526 9.11204C4.21039 8.87442 4.28665 8.64474 4.41665 8.44526C4.4313 8.42183 4.44777 8.39959 4.46589 8.37874L6.26617 6.24415L4.45207 2.18402C4.45173 2.18057 4.45173 2.1771 4.45207 2.17365C3.61435 2.28293 2.84519 2.69383 2.28863 3.32942C1.73208 3.965 1.4263 4.78167 1.42857 5.62649C1.43177 8.55811 2.59777 11.3687 4.67073 13.4417C6.7437 15.5147 9.55433 16.6807 12.4859 16.6839C13.3302 16.6868 14.1467 16.3821 14.7826 15.8267C15.4186 15.2714 15.8305 14.5043 15.9414 13.6673Z" fill="#DDC9AF"/>
</svg>
